<svg xmlns="http://www.w3.org/2000/svg" width="50" height="50" viewBox="0 0 50 50">
  <defs>
    <style>
      .cls-1 {
        fill: #141414;
        fill-rule: evenodd;
      }
    </style>
  </defs>
  <path id="icon" class="cls-1" d="M454.344,1311.99a0.624,0.624,0,0,1-.463-0.19L437.3,1295.22l-0.355.31a19.11,19.11,0,0,1-28.052-2.8l-0.324-.43-2.477,2.15a0.657,0.657,0,0,1-.428.16,0.673,0.673,0,0,1-.5-0.23,0.664,0.664,0,0,1,.067-0.93l2.6-2.25-0.211-.36a19.19,19.19,0,1,1,33.455-18.8l0.334,0.61,6.562-7.03h-5.223a0.652,0.652,0,0,1-.655-0.65,0.661,0.661,0,0,1,.655-0.66h6.955a0.661,0.661,0,0,1,.656.66v6.96a0.656,0.656,0,0,1-1.311,0v-5.54l-7.076,7.58,0.115,0.3a19.017,19.017,0,0,1-3.554,19.66l-0.315.36,16.585,16.59a0.628,0.628,0,0,1,.192.46,0.645,0.645,0,0,1-.192.46A0.624,0.624,0,0,1,454.344,1311.99Zm-44.787-20.55,0.278,0.37a17.875,17.875,0,0,0,31.436-15.98l-0.26-.83-10.531,11.28a0.638,0.638,0,0,1-.444.21,0.851,0.851,0,0,1-.5-0.19l-6.524-6.53Zm14.648-28.13a17.882,17.882,0,0,0-15.683,26.49l0.3,0.54,13.8-11.95a0.618,0.618,0,0,1,.427-0.16,0.634,0.634,0,0,1,.466.19l6.473,6.47,10.448-11.19-0.152-.31A17.778,17.778,0,0,0,424.205,1263.31Z" transform="translate(-405 -1262)"/>
</svg>
