<svg xmlns="http://www.w3.org/2000/svg" width="50" height="50" viewBox="0 0 50 50">
  <defs>
    <style>
      .cls-1 {
        fill: #141414;
        fill-rule: evenodd;
      }
    </style>
  </defs>
  <path id="Icon" class="cls-1" d="M1165.25,1312v-1.22h3.22v-36.45l-1.32.43-2.15-4.35,25-8.41,25,8.41-2.15,4.35-1.32-.43v21.82h2.42v12.6h-2.42v2.03h3.22V1312h-49.5Zm41.65-8.13a3.455,3.455,0,1,0,3.43,3.46A3.446,3.446,0,0,0,1206.9,1303.87Zm-12.54,5.01a4.566,4.566,0,0,1-.92,1.56l-0.3.34h10.62l-0.3-.34a4.706,4.706,0,0,1-.91-1.56l-0.05-.13h-8.09Zm-4.36-5.01a3.455,3.455,0,1,0,3.42,3.46A3.44,3.44,0,0,0,1190,1303.87Zm-14.69,6.91h11.55l-0.3-.34a4.682,4.682,0,0,1,.35-6.59l0.07-.06v-18.6h-2.01v23.56h-7.65v-1.22h6.44v-19.09h-8.45v22.34Zm-5.64,0h4.43v-23.56h9.66v-2.03h-1.61v-1.22h7.65v1.22h-1.61v2.03h4.72l0.32-1.22h-1.42v-1.22h14.89V1286h-1.35l3.59,10.15h1.39v-15.03h-40.66v29.66Zm41.86-3.25h1.21v-10.16h-1.21v10.16Zm-21.54-4.88,0.25,0.02a4.64,4.64,0,0,1,4.39,4.66v0.2h7.65v-0.2a4.654,4.654,0,0,1,4.62-4.68,4.606,4.606,0,0,1,3.09,1.2l0.34,0.31v-6.79h-2.24l-0.53-1.49-10.18,4.74h-6.85Zm-1.8.38,0.31-.12c0.03-.01.05-0.02,0.08-0.03l0.1-.03,3.9-14.41h-4.39v14.59Zm4.07-3.63h4.85l10.04-4.67-3.09-8.73h-9.57l-3.51,12.98,3.8-3.84-1.04-1.05,0.85-.86,2.94,2.96-0.85.86-1.05-1.05Zm-22.59-25.46v5.96h40.66v-5.96l-20.33-6.6Zm42.56-.67,1.07-2.15-23.3-7.84-23.3,7.84,1.07,2.15,22.23-7.21Zm-22.83-1.08v-1.22h1.2v1.22h-1.2Zm3.22,0v-1.22h1.2v1.22h-1.2Zm-6.44,0v-1.22h1.2v1.22h-1.2Z" transform="translate(-1165 -1262)"/>
</svg>
