<svg xmlns="http://www.w3.org/2000/svg" width="50" height="42" viewBox="0 0 50 42">
  <defs>
    <style>
      .cls-1 {
        fill: #101f35;
        fill-rule: evenodd;
      }
    </style>
  </defs>
  <path class="cls-1" d="M430,1577.32a2.245,2.245,0,1,1,2.236-2.24A2.244,2.244,0,0,1,430,1577.32Zm0-3.26a1.02,1.02,0,1,0,1.016,1.02A1.014,1.014,0,0,0,430,1574.06Zm-4.878,5.71a1.433,1.433,0,0,1-1.423-1.43v-6.53a1.425,1.425,0,0,1,1.423-1.42h9.756a1.425,1.425,0,0,1,1.423,1.42v6.53a1.434,1.434,0,0,1-1.423,1.43h-9.756Zm-0.2-1.23h10.163v-6.93H424.919v6.93Zm23.983-15.9v-1.22h1.22v1.22H448.9Zm-3.252,0v-1.22h1.22v1.22h-1.22Zm-37.6,29.36a1.427,1.427,0,0,1-1.423-1.43v-2.65h-0.2a1.427,1.427,0,0,1-1.423-1.43v-20.38a1.427,1.427,0,0,1,1.423-1.43h0.2v-4.28a2.246,2.246,0,0,1,2.236-2.25H409.2l0.813-3.26h5.83l0.813,3.26h2.166v-5.91a2.237,2.237,0,0,1,2.236-2.24h17.886a2.237,2.237,0,0,1,2.236,2.24v5.91h2.032v-2.44h1.22v2.44h2.032v-1.02a2.236,2.236,0,1,1,4.472,0v1.02h0.2a2.246,2.246,0,0,1,2.236,2.25v4.28h0.2a1.427,1.427,0,0,1,1.423,1.43v20.38a1.427,1.427,0,0,1-1.423,1.43h-0.2v2.65a1.427,1.427,0,0,1-1.423,1.43h-43.9Zm32.975-1.23h11.13v-2.85H443.3Zm-20.488,0h18.927l2.277-2.85H418.26Zm-12.691,0h11.131l-2.277-2.85h-8.854v2.85Zm35.773-4.07H453.78v-20.8H443.618v5.3H448.5v7.75h-4.878v7.75Zm-26.016,0h24.8v-24.06H417.6v24.06Zm-11.383,0h10.163v-20.8H406.219v20.8Zm37.4-8.97h3.658v-5.31h-3.658v2.04h1.626v1.23h-1.626v2.04Zm-2.439-16.31H442.2a1.425,1.425,0,0,1,1.423,1.42v1.84h8.536v-4.28a1.014,1.014,0,0,0-1.016-1.02h-9.959v2.04Zm-32.317-2.04a1.015,1.015,0,0,0-1.017,1.02v4.28h8.537v-1.84a1.425,1.425,0,0,1,1.423-1.42h1.016v-2.04h-9.959Zm12.195-8.16a1.02,1.02,0,0,0-1.016,1.02v9.18h19.918v-9.18a1.021,1.021,0,0,0-1.016-1.02H421.057Zm27.642,4.89a1.021,1.021,0,0,0-1.016,1.02v1.02h2.032v-1.02A1.021,1.021,0,0,0,448.7,1556.11Zm-38.243,2.04H415.4l-0.508-2.04h-3.926Zm-0.578,4.49v-1.22h1.22v1.22h-1.22Zm3.252,0v-1.22h1.219v1.22H413.13Zm13.008-3.26v-6.12h7.724v6.12h-7.724Zm1.22-1.23h5.284v-3.67h-5.284v3.67Zm2.032-1.22v-1.22h1.22v1.22h-1.22Zm0.61,28.54a10.4,10.4,0,0,1-8.041-16.95l0.93,0.79a9.155,9.155,0,0,0,12.857,12.9l0.788,0.93A10.322,10.322,0,0,1,430,1585.47Zm7.111-4.63a9.155,9.155,0,0,0-12.857-12.9l-0.788-.93a10.379,10.379,0,0,1,14.575,14.62Zm-28.859.56v-1.23h4.472v1.23h-4.472Zm0,3.26v-1.23h4.472v1.23h-4.472Z" transform="translate(-405 -1550)"/>
</svg>
