<svg xmlns="http://www.w3.org/2000/svg" width="23" height="13" viewBox="0 0 23 13">
  <defs>
    <style>
      .cls-1 {
        fill: #fff;
        fill-rule: evenodd;
      }
    </style>
  </defs>
  <path id="ARROW" class="cls-1" d="M467.639,619.859H445.358a0.365,0.365,0,0,1,0-.73h22.281A0.365,0.365,0,0,1,467.639,619.859ZM461.809,626a0.347,0.347,0,0,1-.249-0.107,0.372,0.372,0,0,1,0-.515l5.581-5.888-5.581-5.884a0.373,0.373,0,0,1,0-.516,0.344,0.344,0,0,1,.5,0l5.83,6.142a0.375,0.375,0,0,1,0,.516l-5.83,6.145A0.345,0.345,0,0,1,461.809,626Z" transform="translate(-445 -613)"/>
</svg>
