<svg xmlns="http://www.w3.org/2000/svg" width="50" height="50" viewBox="0 0 50 50">
  <defs>
    <style>
      .cls-1 {
        fill: #141414;
        fill-rule: evenodd;
      }
    </style>
  </defs>
  <path id="icon" class="cls-1" d="M795.569,1308.75v-1.22h7.724v1.22h-7.724Zm31.5,3.25a7.942,7.942,0,0,1-7.886-7.14l-0.019-.18h-3.274v-17.07h-2.032v20.53A3.865,3.865,0,0,1,810,1312H788.862a3.864,3.864,0,0,1-3.862-3.86v-42.28a3.864,3.864,0,0,1,3.862-3.86H810a3.865,3.865,0,0,1,3.862,3.86v20.53h2.032v-17.07h3.275l0.018-.19a7.9,7.9,0,1,1,0,1.59l-0.019-.19h-2.054v15.86h2.055l0.018-.18a7.917,7.917,0,1,1,0,1.58l-0.019-.18h-2.054v15.85h2.055l0.018-.18A7.926,7.926,0,1,1,827.073,1312Zm0-14.64a6.71,6.71,0,1,0,6.707,6.71A6.716,6.716,0,0,0,827.073,1297.36Zm-40.854,10.78a2.648,2.648,0,0,0,2.643,2.64H810a2.648,2.648,0,0,0,2.642-2.64v-2.65H786.219v2.65Zm0-3.87h26.423v-16.66h-2.06l-0.013.19a11.18,11.18,0,1,1,0-1.6l0.013,0.19h2.06V1268.1H786.219v36.17Zm8-11.72a9.575,9.575,0,0,0-1.966.99l-0.2.13,0.166,0.18a10.008,10.008,0,0,0,4.608,2.75l0.7,0.19-0.5-.53a14.725,14.725,0,0,1-2.555-3.61l-0.082-.16Zm10.17,0.1a14.7,14.7,0,0,1-2.555,3.61l-0.5.53,0.7-.19a10.008,10.008,0,0,0,4.608-2.75l0.166-.18-0.2-.13a9.6,9.6,0,0,0-1.966-.99l-0.171-.06Zm-4.348,3.65,0.343-.32a14.812,14.812,0,0,0,2.758-3.62l0.124-.24-0.258-.06a15.159,15.159,0,0,0-2.755-.36l-0.212-.01v4.61Zm-1.433-4.61a15.979,15.979,0,0,0-2.754.37l-0.259.06,0.124,0.24a14.583,14.583,0,0,0,2.758,3.61l0.344,0.33v-4.62Zm28.465-11.4a6.71,6.71,0,1,0,6.707,6.71A6.716,6.716,0,0,0,827.073,1280.29Zm-21.382,7.51a12.544,12.544,0,0,1-.686,3.37l-0.066.18,0.185,0.07a10.566,10.566,0,0,1,2.283,1.19l0.17,0.11,0.116-.17a9.934,9.934,0,0,0,1.656-4.72l0.018-.22H805.7Zm-16.177.03a9.9,9.9,0,0,0,1.655,4.72l0.116,0.17,0.169-.11a10.616,10.616,0,0,1,2.283-1.19l0.186-.07-0.066-.18a12.546,12.546,0,0,1-.687-3.37l-0.012-.19H789.5Zm10.527,2.64h0.194a16.817,16.817,0,0,1,3.348.47l0.178,0.05,0.062-.17a11.218,11.218,0,0,0,.646-2.99l0.017-.22h-4.445v2.86Zm-5.649-2.64a11.257,11.257,0,0,0,.646,2.99l0.063,0.17,0.178-.05a16.807,16.807,0,0,1,3.347-.47h0.2v-2.86h-4.445Zm13.015-6.44a10.2,10.2,0,0,1-2.283,1.18l-0.185.07,0.066,0.19a12.466,12.466,0,0,1,.686,3.37l0.013,0.19h3.662l-0.018-.22a9.949,9.949,0,0,0-1.655-4.73l-0.116-.17Zm-3.824,1.66a16.807,16.807,0,0,1-3.348.47l-0.194.01v2.86h4.445l-0.017-.22a11.134,11.134,0,0,0-.646-2.99l-0.062-.17Zm-8.545.13a11.173,11.173,0,0,0-.646,2.99l-0.016.22h4.445v-2.86l-0.2-.01a16.807,16.807,0,0,1-3.347-.47l-0.178-.04Zm-3.869-1.74a9.95,9.95,0,0,0-1.656,4.73l-0.019.22h3.664l0.012-.19a12.468,12.468,0,0,1,.687-3.37l0.066-.19-0.186-.07a10.243,10.243,0,0,1-2.283-1.18l-0.169-.12Zm8.872,0.87,0.212-.01a15.057,15.057,0,0,0,2.755-.37l0.258-.06-0.124-.23a14.428,14.428,0,0,0-2.758-3.62l-0.343-.33v4.62Zm-1.564-4.29a14.475,14.475,0,0,0-2.758,3.62l-0.124.23,0.259,0.06a15.152,15.152,0,0,0,2.755.37l0.212,0.01v-4.62Zm-1.65-.62a9.841,9.841,0,0,0-4.608,2.75l-0.166.17,0.2,0.14a10.179,10.179,0,0,0,1.966.99l0.172,0.06,0.082-.16a14.911,14.911,0,0,1,2.555-3.62l0.5-.52Zm5.006,0.33a14.911,14.911,0,0,1,2.555,3.62l0.082,0.16,0.172-.06a10.625,10.625,0,0,0,1.966-.99l0.2-.14-0.165-.17a9.841,9.841,0,0,0-4.608-2.75l-0.7-.19Zm25.24-14.51a6.705,6.705,0,1,0,6.707,6.7A6.714,6.714,0,0,0,827.073,1263.22Zm-38.211,0a2.642,2.642,0,0,0-2.643,2.64v1.02h26.423v-1.02a2.641,2.641,0,0,0-2.642-2.64H788.862Zm37.6,11.38v-4.07h-2.439v-1.21h2.439v-4.07h3.659v1.22h-2.439v2.85h2.439v1.21h-2.439v4.07h-1.22Zm0,34.15v-6.51h-1.626v-1.22h1.626v-1.62h1.22v1.62h1.626v1.22h-1.626v5.29h2.439v1.22h-3.659Zm-3.252-17.89v-5.28h1.22v5.28h-1.22Zm0-7.32v-1.22h1.22v1.22h-1.22Zm7.317,7.32v-2.64a1.423,1.423,0,1,0-2.845,0v2.64h-1.22v-5.28h1.22v0.39l0.291-.14a2.589,2.589,0,0,1,1.132-.25,2.641,2.641,0,0,1,2.642,2.64v2.64h-1.22Z" transform="translate(-785 -1262)"/>
</svg>
