<svg xmlns="http://www.w3.org/2000/svg" width="50" height="50" viewBox="0 0 50 50">
  <defs>
    <style>
      .cls-1 {
        fill: #101f35;
        fill-rule: evenodd;
      }
    </style>
  </defs>
  <path class="cls-1" d="M796.382,1600v-1.22h3.252v-3.66H788.862a3.864,3.864,0,0,1-3.862-3.86v-26.02a3.864,3.864,0,0,1,3.089-3.78l0.163-.03v-6.16l3.862-4.83,3.861,4.83v6.11h8.537v-0.36a15.956,15.956,0,0,1,3.685-10.18,2.354,2.354,0,0,1,3.605,0,15.952,15.952,0,0,1,3.686,10.18v0.36h8.536v-0.85l-2.557-4.26,4.48-6.27H828.2l4.479,6.27-2.557,4.26v0.85h1.016a3.864,3.864,0,0,1,3.862,3.86v26.02a3.864,3.864,0,0,1-3.862,3.86H820.366v3.66h3.252V1600H796.382Zm4.472-1.22h18.292v-3.66H800.854v3.66Zm-14.635-7.52a2.642,2.642,0,0,0,2.643,2.64h42.276a2.641,2.641,0,0,0,2.642-2.64v-2.64H786.219v2.64Zm38.417-13.62a5.484,5.484,0,0,1,3.831,9.41l-0.357.35h5.67v-22.16a2.641,2.641,0,0,0-2.642-2.64h-1.016v8.33a3.049,3.049,0,1,1-6.1,0v-8.33h-8.536v2.26l6.5,3.26v2.61h-7.55l-0.813,1.63h-0.58v1.46l0.1,0.06a6.912,6.912,0,0,1,1.226.95l0.161,0.16,0.141-.17a5.441,5.441,0,0,1,4.267-2.06,5.516,5.516,0,0,1,5.426,4.71l0.025,0.18h0.183a0.084,0.084,0,0,1,.048-0.01h0.011Zm-29.27,1.22a4.27,4.27,0,0,0,0,8.54h29.268a4.27,4.27,0,0,0,0-8.54h-0.06l-0.013.01h-0.167l-0.027.17a5.5,5.5,0,0,1-5.221,4.69v-1.22a4.267,4.267,0,1,0-3.761-6.61l-0.071.11,0.066,0.11a6.478,6.478,0,0,1,.921,3.33v0.22h-1.22v-0.22a5.252,5.252,0,0,0-2.914-4.72l-0.338-.17v-2.2h-3.658v2.2l-0.338.17a5.25,5.25,0,0,0-2.914,4.72v0.22H803.7v-0.22a6.479,6.479,0,0,1,1.276-3.88l0.1-.13-0.119-.13a4.311,4.311,0,0,0-3.089-1.33,4.265,4.265,0,0,0-4.244,4.01l-0.008.14,0.123,0.06a5.514,5.514,0,0,1,3.109,4.73h-1.221A4.276,4.276,0,0,0,795.366,1578.86Zm-7.386-16.1a2.647,2.647,0,0,0-1.761,2.48v22.16h5.67l-0.356-.35a5.484,5.484,0,0,1,3.833-9.41,5.16,5.16,0,0,1,.835.07l0.206,0.03,0.027-.2a5.474,5.474,0,0,1,9.357-3.12l0.13,0.14,0.144-.12a5.863,5.863,0,0,1,.787-0.56l0.1-.06v-1.46h-0.58l-0.813-1.63h-7.55v-2.61l6.5-3.26v-2.26h-8.537v10.77a2.243,2.243,0,0,1-2.235,2.24h-3.252a2.244,2.244,0,0,1-2.236-2.24v-10.71Zm1.491,10.61a1.021,1.021,0,0,0,1.017,1.02h3.252a1.021,1.021,0,0,0,1.016-1.02v-2.64h-5.285v2.64Zm35.773-2.44a1.829,1.829,0,1,0,3.658,0v-6.7h-3.658v6.7Zm-18.119.21h5.75l1.016-2.04h-7.782Zm7.927-1.63h5.72v-0.64l-5.284-2.64v2.41Zm-15.824-.64v0.64h5.72l-0.436-.87v-2.41Zm-6.5.64h2.032V1556.1h-2.032v9.75H791.5v-9.75h-2.033v13.41H791.5v-1.63h1.22v1.63ZM810,1551.23a1.144,1.144,0,0,0-.866.39,14.743,14.743,0,0,0-3.4,9.4v6.86h8.536v-6.86a14.738,14.738,0,0,0-3.4-9.4A1.142,1.142,0,0,0,810,1551.23Zm15.244,11.78H828.9v-2.04h-3.658v2.04Zm-2.321-6.68,2.056,3.42h4.188l2.056-3.42-3.54-4.96v2.78l0.135,0.05a2.236,2.236,0,1,1-1.49,0l0.135-.05v-2.78Zm4.15-1.05a1.02,1.02,0,1,0,1.016,1.02A1.021,1.021,0,0,0,827.073,1555.28Zm-36.943-.4H794.1l-1.984-2.48Zm14.382,36.99v-1.22h1.22v1.22h-1.22Zm3.252,0v-1.22h4.472v1.22h-4.472Zm6.5,0v-1.22h1.22v1.22h-1.22Zm-6.5-26.02v-7.72h4.472v7.72h-4.472Zm1.22-1.22h2.032v-5.28h-2.032v5.28Zm0.406-8.53v-1.22h1.22v1.22h-1.22Z" transform="translate(-785 -1550)"/>
</svg>
