<svg xmlns="http://www.w3.org/2000/svg" width="50" height="50" viewBox="0 0 50 50">
  <defs>
    <style>
      .cls-1 {
        fill: #101f35;
        fill-rule: evenodd;
      }
    </style>
  </defs>
  <path id="icon" class="cls-1" d="M1177.8,1567.48a0.61,0.61,0,0,1-.6-0.61,0.605,0.605,0,1,1,1.21,0A0.612,0.612,0,0,1,1177.8,1567.48Zm8.13,0a0.61,0.61,0,0,1-.6-0.61,0.605,0.605,0,1,1,1.21,0A0.612,0.612,0,0,1,1185.93,1567.48Zm-4.06,7.31a3.042,3.042,0,0,1-3.04-2.84h1.22a1.831,1.831,0,0,0,3.64,0h1.22A3.042,3.042,0,0,1,1181.87,1574.79Zm14.84,25.21v-1.22h1.62v-2.03h-5.08a2.246,2.246,0,0,1-2.1-1.5l-0.04-.13H1165v-7.66a5.487,5.487,0,0,1,3.75-5.21l8.45-2.81v-1.95l-0.1-.06a8.736,8.736,0,0,1-3.64-4.97l-0.04-.14-0.13-.01a3.849,3.849,0,0,1-3.41-3.82v-6.5a11.99,11.99,0,0,1,23.98,0v6.5a3.849,3.849,0,0,1-3.41,3.82l-0.13.01-0.04.14a8.736,8.736,0,0,1-3.64,4.97l-0.1.06v1.95l5.49,1.83,0.08-.05a2.152,2.152,0,0,1,1.14-.33h19.51a2.236,2.236,0,0,1,2.24,2.24v11.38a2.243,2.243,0,0,1-2.24,2.24h-5.08v2.03h1.63V1600h-12.6Zm2.84-1.22h6.91v-2.03h-6.91v2.03Zm-7.31-4.27a1.016,1.016,0,0,0,1.01,1.02h19.51a1.024,1.024,0,0,0,1.02-1.02v-1.02h-21.54v1.02Zm-9.76-.61h8.54v-10.77a2.127,2.127,0,0,1,.11-0.67l0.06-.19-0.79-.26-4.35,6.97-3.57-3.57v8.49Zm-9.76,0h8.54v-8.49l-3.57,3.57-4.35-6.97-4.2,1.4a4.258,4.258,0,0,0-2.92,4.05v3.19h5.28v-2.44h1.22v5.69Zm-6.5,0h5.28v-2.03h-5.28v2.03Zm27.03-11.79a1.016,1.016,0,0,0-1.01,1.02v9.14h21.54v-9.14a1.024,1.024,0,0,0-1.02-1.02h-19.51Zm-18.72-.5,3.39,5.42,3.09-3.09-3.37-3.37Zm8.2,2.33,3.09,3.09,3.39-5.42-3.11-1.04Zm-4.32-4.32,3.46,3.46,3.46-3.46v-1.48l-0.28.11a8.594,8.594,0,0,1-6.36,0l-0.28-.11v1.48Zm-4.06-9.5a7.52,7.52,0,0,0,15.04,0v-5.89h-15.04v5.89Zm-1.49-4.11a2.632,2.632,0,0,0,.04,4.98l0.29,0.1-0.03-.31c-0.01-.23-0.03-0.44-0.03-0.66v-4.2Zm17.75,4.11c0,0.22-.02.43-0.03,0.66l-0.03.3,0.29-.09a2.632,2.632,0,0,0,.04-4.98l-0.27-.09v4.2Zm-1.42-7.11a1.419,1.419,0,0,1,1.42,1.42v0.25l0.16,0.03a3.718,3.718,0,0,1,1.55.72l0.32,0.24v-3.68a10.77,10.77,0,0,0-21.54,0v3.68l0.32-.24a3.718,3.718,0,0,1,1.55-.72l0.16-.03v-0.25a1.419,1.419,0,0,1,1.42-1.42h14.64Zm16.87,26.01,2.44-1.83-2.44-1.83,0.73-.97,3.74,2.8-3.74,2.81Zm-10.57-1.83,3.74-2.8,0.73,0.97-2.44,1.83,2.44,1.83-0.73.98Zm5.63,2.92,2.66-6.31,1.12,0.47-2.66,6.32Z" transform="translate(-1165 -1550)"/>
</svg>
