<svg xmlns="http://www.w3.org/2000/svg" width="43" height="25.94" viewBox="0 0 43 25.94">
  <defs>
    <style>
      .cls-1 {
        fill: red;
        fill-rule: evenodd;
      }
    </style>
  </defs>
  <path id="Right_Arrow" data-name="Right Arrow" class="cls-1" d="M1114.48,2143.52h-41.97a0.5,0.5,0,0,1-.5-0.5,0.5,0.5,0,0,1,.5-0.5h41.97a0.51,0.51,0,0,1,.51.5A0.5,0.5,0,0,1,1114.48,2143.52ZM1101.81,2156a0.5,0.5,0,0,1-.35-0.85l12.31-12.13-12.31-12.13a0.483,0.483,0,0,1,0-.7,0.5,0.5,0,0,1,.71,0l12.67,12.48a0.483,0.483,0,0,1,0,.7l-12.67,12.49A0.543,0.543,0,0,1,1101.81,2156Z" transform="translate(-1072 -2130.06)"/>
</svg>
